<svg width="39" height="39" viewBox="0 0 39 39" fill="none" xmlns="http://www.w3.org/2000/svg">
<path d="M34.7648 15.4673C33.2633 16.285 31.2323 17.5554 29.8305 18.3416C29.1016 18.7189 28.2793 19.2346 27.4693 18.9579L27.4195 18.939C26.3355 18.4422 25.5193 16.568 24.834 15.4233C23.9431 13.8447 23.2516 12.2787 25.077 11.1843C26.6532 10.1026 29.0019 8.87615 30.6529 7.77552C32.5469 6.56168 32.7088 5.4296 30.7962 4.00193C25.1206 -0.570397 16.6726 -1.30625 10.2806 2.21577C8.77293 3.17174 4.48664 5.22206 6.9226 7.19061C8.3742 8.44218 11.807 10.0837 13.5327 11.3856C14.8722 12.2724 14.4797 13.6309 13.8255 14.8321C12.9284 16.3667 12.2618 18.1969 10.9036 18.9265C9.81958 19.2409 9.06574 18.612 7.62659 17.8321C5.75758 16.9139 2.5927 14.2535 1.0788 14.9579C-0.397728 16.1088 0.00722572 20.5931 0.200358 22.417C1.0788 28.8761 5.02866 34.3416 10.4924 37.178C11.7447 37.8007 14.1121 39.134 14.6728 37.1906C15.1525 35.2221 14.8535 32.8133 14.9407 30.5868C14.9531 29.1969 14.9968 28.1717 15.4329 27.5994C15.707 27.2221 16.1431 27.046 16.5917 26.9453C17.6695 26.7252 19.4388 26.7566 20.8032 26.8195C22.6224 26.8636 23.4073 27.6057 23.3949 29.568C23.4634 31.2724 23.37 33.9642 23.4572 35.7755C23.5319 39.1843 25.619 38.3353 27.8618 37.178C34.6526 33.7692 39.0323 25.807 38.2723 17.9327C38.0854 15.2598 37.4375 13.939 34.7648 15.4673Z" fill="#1D1D1F"/>
</svg>
