<svg width="24" height="24" viewBox="0 0 24 24" fill="none" xmlns="http://www.w3.org/2000/svg">
<mask id="mask0_194_1221" style="mask-type:alpha" maskUnits="userSpaceOnUse" x="0" y="0" width="24" height="24">
<rect y="24" width="24" height="24" transform="rotate(-90 0 24)" fill="#D9D9D9"/>
</mask>
<g mask="url(#mask0_194_1221)">
<path d="M11.9998 13.2L15.8998 9.29995C16.0831 9.11662 16.3165 9.02495 16.5998 9.02495C16.8831 9.02495 17.1165 9.11662 17.2998 9.29995C17.4831 9.48328 17.5748 9.71662 17.5748 9.99995C17.5748 10.2833 17.4831 10.5166 17.2998 10.7L12.6998 15.3C12.5998 15.4 12.4915 15.4708 12.3748 15.5125C12.2581 15.5541 12.1331 15.575 11.9998 15.575C11.8665 15.575 11.7415 15.5541 11.6248 15.5125C11.5081 15.4708 11.3998 15.4 11.2998 15.3L6.6998 10.7C6.51647 10.5166 6.4248 10.2833 6.4248 9.99995C6.4248 9.71662 6.51647 9.48328 6.6998 9.29995C6.88314 9.11662 7.11647 9.02495 7.3998 9.02495C7.68314 9.02495 7.91647 9.11662 8.0998 9.29995L11.9998 13.2Z" fill="#1C1B1F"/>
</g>
</svg>
