<svg width="24" height="24" viewBox="0 0 24 24" fill="none" xmlns="http://www.w3.org/2000/svg">
<mask id="mask0_194_1221" style="mask-type:alpha" maskUnits="userSpaceOnUse" x="0" y="0" width="24" height="24">
<rect x="24" width="24" height="24" transform="rotate(90 24 0)" fill="#D9D9D9"/>
</mask>
<g mask="url(#mask0_194_1221)">
<path d="M12.0002 10.8L8.10019 14.7C7.91686 14.8834 7.68353 14.975 7.40019 14.975C7.11686 14.975 6.88353 14.8834 6.7002 14.7C6.51686 14.5167 6.42519 14.2834 6.42519 14C6.42519 13.7167 6.51686 13.4834 6.7002 13.3L11.3002 8.70005C11.4002 8.60005 11.5085 8.52922 11.6252 8.48755C11.7419 8.44588 11.8669 8.42505 12.0002 8.42505C12.1335 8.42505 12.2585 8.44588 12.3752 8.48755C12.4919 8.52922 12.6002 8.60005 12.7002 8.70005L17.3002 13.3C17.4835 13.4834 17.5752 13.7167 17.5752 14C17.5752 14.2834 17.4835 14.5167 17.3002 14.7C17.1169 14.8834 16.8835 14.975 16.6002 14.975C16.3169 14.975 16.0835 14.8834 15.9002 14.7L12.0002 10.8Z" fill="#1C1B1F"/>
</g>
</svg>
