<svg width="24" height="24" viewBox="0 0 24 24" fill="none" xmlns="http://www.w3.org/2000/svg">
<mask id="mask0_172_1348" style="mask-type:alpha" maskUnits="userSpaceOnUse" x="0" y="0" width="24" height="24">
<rect width="24" height="24" fill="#D9D9D9"/>
</mask>
<g mask="url(#mask0_172_1348)">
<path d="M15 21C13.0333 21 11.2833 20.4417 9.75 19.325C8.21667 18.2083 7.13333 16.7667 6.5 15H4C3.71667 15 3.47917 14.9042 3.2875 14.7125C3.09583 14.5208 3 14.2833 3 14C3 13.7167 3.09583 13.4792 3.2875 13.2875C3.47917 13.0958 3.71667 13 4 13H6.05C6.01667 12.8167 6 12.65 6 12.5V11.5C6 11.35 6.01667 11.1833 6.05 11H4C3.71667 11 3.47917 10.9042 3.2875 10.7125C3.09583 10.5208 3 10.2833 3 10C3 9.71667 3.09583 9.47917 3.2875 9.2875C3.47917 9.09583 3.71667 9 4 9H6.5C7.13333 7.23333 8.21667 5.79167 9.75 4.675C11.2833 3.55833 13.0333 3 15 3C15.95 3 16.8417 3.1375 17.675 3.4125C18.5083 3.6875 19.2917 4.06667 20.025 4.55C20.3083 4.73333 20.4542 4.99167 20.4625 5.325C20.4708 5.65833 20.3583 5.94167 20.125 6.175C19.8917 6.40833 19.6 6.54583 19.25 6.5875C18.9 6.62917 18.575 6.55833 18.275 6.375C17.7917 6.09167 17.2708 5.875 16.7125 5.725C16.1542 5.575 15.5833 5.5 15 5.5C13.75 5.5 12.6125 5.82083 11.5875 6.4625C10.5625 7.10417 9.78333 7.95 9.25 9H14C14.2833 9 14.5208 9.09583 14.7125 9.2875C14.9042 9.47917 15 9.71667 15 10C15 10.2833 14.9042 10.5208 14.7125 10.7125C14.5208 10.9042 14.2833 11 14 11H8.6C8.56667 11.1833 8.54167 11.35 8.525 11.5C8.50833 11.65 8.5 11.8167 8.5 12C8.5 12.1833 8.50833 12.35 8.525 12.5C8.54167 12.65 8.56667 12.8167 8.6 13H14C14.2833 13 14.5208 13.0958 14.7125 13.2875C14.9042 13.4792 15 13.7167 15 14C15 14.2833 14.9042 14.5208 14.7125 14.7125C14.5208 14.9042 14.2833 15 14 15H9.25C9.78333 16.05 10.5625 16.8958 11.5875 17.5375C12.6125 18.1792 13.75 18.5 15 18.5C15.5833 18.5 16.1542 18.4292 16.7125 18.2875C17.2708 18.1458 17.7917 17.9333 18.275 17.65C18.575 17.4667 18.9 17.3917 19.25 17.425C19.6 17.4583 19.8917 17.5917 20.125 17.825C20.3583 18.0583 20.4708 18.3417 20.4625 18.675C20.4542 19.0083 20.3083 19.2667 20.025 19.45C19.2917 19.9333 18.5083 20.3125 17.675 20.5875C16.8417 20.8625 15.95 21 15 21Z" fill="#1C1B1F"/>
</g>
</svg>
