<svg width="24" height="24" viewBox="0 0 24 24" fill="none" xmlns="http://www.w3.org/2000/svg">
<mask id="mask0_169_1306" style="mask-type:alpha" maskUnits="userSpaceOnUse" x="0" y="0" width="24" height="24">
<rect width="24" height="24" fill="#D9D9D9"/>
</mask>
<g mask="url(#mask0_169_1306)">
<path d="M12.0001 14C11.1667 14 10.4584 13.7083 9.87508 13.125C9.29174 12.5417 9.00008 11.8333 9.00008 11V5C9.00008 4.16667 9.29174 3.45833 9.87508 2.875C10.4584 2.29167 11.1667 2 12.0001 2C12.8334 2 13.5417 2.29167 14.1251 2.875C14.7084 3.45833 15.0001 4.16667 15.0001 5V11C15.0001 11.8333 14.7084 12.5417 14.1251 13.125C13.5417 13.7083 12.8334 14 12.0001 14ZM11.0001 20V17.925C9.46674 17.7083 8.15424 17.0583 7.06258 15.975C5.97091 14.8917 5.30841 13.575 5.07508 12.025C5.04174 11.7417 5.11674 11.5 5.30008 11.3C5.48341 11.1 5.71674 11 6.00008 11C6.28341 11 6.52091 11.0958 6.71258 11.2875C6.90424 11.4792 7.03341 11.7167 7.10008 12C7.33341 13.1667 7.91258 14.125 8.83758 14.875C9.76258 15.625 10.8167 16 12.0001 16C13.2001 16 14.2584 15.6208 15.1751 14.8625C16.0917 14.1042 16.6667 13.15 16.9001 12C16.9667 11.7167 17.0959 11.4792 17.2876 11.2875C17.4792 11.0958 17.7167 11 18.0001 11C18.2834 11 18.5167 11.1 18.7001 11.3C18.8834 11.5 18.9584 11.7417 18.9251 12.025C18.6917 13.5417 18.0334 14.85 16.9501 15.95C15.8667 17.05 14.5501 17.7083 13.0001 17.925V20C13.0001 20.2833 12.9042 20.5208 12.7126 20.7125C12.5209 20.9042 12.2834 21 12.0001 21C11.7167 21 11.4792 20.9042 11.2876 20.7125C11.0959 20.5208 11.0001 20.2833 11.0001 20Z" fill="#1C1B1F"/>
</g>
</svg>
