<svg width="24" height="24" viewBox="0 0 24 24" fill="none" xmlns="http://www.w3.org/2000/svg">
<mask id="mask0_167_1288" style="mask-type:alpha" maskUnits="userSpaceOnUse" x="0" y="0" width="24" height="24">
<rect width="24" height="24" fill="#D9D9D9"/>
</mask>
<g mask="url(#mask0_167_1288)">
<path d="M12 21.9C11.8833 21.9 11.775 21.8917 11.675 21.875C11.575 21.8584 11.475 21.8334 11.375 21.8C9.125 21.05 7.33333 19.6625 6 17.6375C4.66667 15.6125 4 13.4334 4 11.1V6.37502C4 5.95836 4.12083 5.58336 4.3625 5.25002C4.60417 4.91669 4.91667 4.67502 5.3 4.52502L11.3 2.27502C11.5333 2.19169 11.7667 2.15002 12 2.15002C12.2333 2.15002 12.4667 2.19169 12.7 2.27502L18.7 4.52502C19.0833 4.67502 19.3958 4.91669 19.6375 5.25002C19.8792 5.58336 20 5.95836 20 6.37502V11.1C20 13.4334 19.3333 15.6125 18 17.6375C16.6667 19.6625 14.875 21.05 12.625 21.8C12.525 21.8334 12.425 21.8584 12.325 21.875C12.225 21.8917 12.1167 21.9 12 21.9Z" fill="#1C1B1F"/>
</g>
</svg>
