<svg width="24" height="24" viewBox="0 0 24 24" fill="none" xmlns="http://www.w3.org/2000/svg">
<mask id="mask0_176_1221" style="mask-type:alpha" maskUnits="userSpaceOnUse" x="0" y="0" width="24" height="24">
<rect width="24" height="24" fill="#D9D9D9"/>
</mask>
<g mask="url(#mask0_176_1221)">
<path d="M2.70011 17.625C2.50011 17.425 2.40428 17.1875 2.41261 16.9125C2.42094 16.6375 2.51678 16.4083 2.70011 16.225L7.97511 10.875C8.35844 10.4916 8.83344 10.3 9.40011 10.3C9.96678 10.3 10.4418 10.4916 10.8251 10.875L13.4001 13.475L18.6001 8.32495H17.0001C16.7168 8.32495 16.4793 8.22912 16.2876 8.03745C16.0959 7.84578 16.0001 7.60828 16.0001 7.32495C16.0001 7.04162 16.0959 6.80412 16.2876 6.61245C16.4793 6.42078 16.7168 6.32495 17.0001 6.32495H21.0001C21.2834 6.32495 21.5209 6.42078 21.7126 6.61245C21.9043 6.80412 22.0001 7.04162 22.0001 7.32495V11.325C22.0001 11.6083 21.9043 11.8458 21.7126 12.0375C21.5209 12.2291 21.2834 12.325 21.0001 12.325C20.7168 12.325 20.4793 12.2291 20.2876 12.0375C20.0959 11.8458 20.0001 11.6083 20.0001 11.325V9.72495L14.8251 14.9C14.4418 15.2833 13.9668 15.475 13.4001 15.475C12.8334 15.475 12.3584 15.2833 11.9751 14.9L9.40011 12.325L4.10011 17.625C3.91678 17.8083 3.68344 17.9 3.40011 17.9C3.11678 17.9 2.88344 17.8083 2.70011 17.625Z" fill="#1C1B1F"/>
</g>
</svg>
