<svg width="250" height="40" viewBox="0 0 250 40" fill="none" xmlns="http://www.w3.org/2000/svg">
<g clip-path="url(#clip0_331_48)">
<path d="M73.7452 6.71696C72.0631 4.95595 70.1256 3.5723 67.9451 2.56601C65.7645 1.55972 63.4345 1.05658 60.9674 1.05658C58.5003 1.05658 56.1204 1.55972 53.9399 2.56601C51.7593 3.5723 49.8405 4.95595 48.1895 6.71696C46.5386 8.47796 45.2427 10.4968 44.3144 12.7799C43.3861 15.0629 42.9189 17.478 42.9189 20.0251C42.9189 22.5723 43.3861 25.088 44.3144 27.371C45.2427 29.6541 46.5323 31.6541 48.1895 33.3836C49.8405 35.1132 51.7593 36.4591 53.9399 37.4339C56.1204 38.4088 58.4629 38.8931 60.9674 38.8931C63.4719 38.8931 65.7645 38.4088 67.9451 37.4339C70.1256 36.4591 72.0569 35.1132 73.7452 33.3836C75.4274 31.6541 76.7419 29.6541 77.6889 27.371C78.6358 25.088 79.1093 22.6415 79.1093 20.0251C79.1093 17.4088 78.6358 15.0629 77.6889 12.7799C76.7419 10.4968 75.4274 8.47796 73.7452 6.71696ZM71.0788 24.6289C70.5305 26.0566 69.7767 27.3144 68.8173 28.4025C67.8578 29.4905 66.724 30.3396 65.4219 30.9434C64.1198 31.5471 62.718 31.849 61.2104 31.849C59.7027 31.849 58.1888 31.5471 56.8555 30.9434C55.5223 30.3396 54.3511 29.4905 53.3418 28.4025C52.3325 27.3144 51.5475 26.0566 50.9806 24.6289C50.4199 23.2012 50.1395 21.6666 50.1395 20.0251C50.1395 18.3836 50.4137 16.7861 50.9557 15.3459C51.5039 13.9056 52.2702 12.6352 53.267 11.5471C54.2638 10.4591 55.4164 9.61004 56.7309 9.00627C58.0455 8.40249 59.4722 8.10061 61.011 8.10061C62.5498 8.10061 63.9765 8.40249 65.2973 9.00627C66.6118 9.61004 67.7582 10.4591 68.7363 11.5471C69.7144 12.6352 70.4869 13.9056 71.0476 15.3459C71.6083 16.7861 71.8887 18.3459 71.8887 20.0251C71.8887 21.7044 71.6146 23.2012 71.0725 24.6289H71.0788Z" fill="#1D1D1F"/>
<path d="M103.581 22.5912C104.559 21.3522 105.263 19.9748 105.699 18.4654C106.135 16.956 106.347 15.4465 106.347 13.9371C106.347 12.0251 106.042 10.3082 105.431 8.77986C104.821 7.25156 103.93 5.94338 102.759 4.85533C101.587 3.76728 100.136 2.92452 98.4039 2.33961C96.6719 1.7547 94.697 1.45911 92.4853 1.45911H81.7509V38.4906H88.7286V26.717H93.3762L100.859 38.4906H108.989L100.74 25.0314C101.868 24.3648 102.821 23.5534 103.575 22.5912H103.581ZM98.8649 15.9245C98.6905 16.5472 98.3976 17.1384 97.9989 17.7107C97.6002 18.283 97.0457 18.7484 96.3417 19.1195C95.6377 19.4906 94.7531 19.6729 93.6939 19.6729H88.7348V8.50313H93.7376C94.9587 8.50313 95.9243 8.72326 96.647 9.15722C97.3697 9.59118 97.9055 10.1321 98.2606 10.7673C98.6157 11.4025 98.8462 12.0314 98.9583 12.6541C99.0705 13.2767 99.1266 13.7862 99.1266 14.1887C99.1266 14.7233 99.0393 15.3019 98.8649 15.9245Z" fill="#1D1D1F"/>
<path d="M137.896 6.71696C136.208 4.95595 134.277 3.5723 132.096 2.56601C129.916 1.55972 127.585 1.05658 125.118 1.05658C122.651 1.05658 120.271 1.55972 118.091 2.56601C115.91 3.5723 113.991 4.95595 112.341 6.71696C110.69 8.47796 109.394 10.4968 108.465 12.7799C107.537 15.0629 107.07 17.478 107.07 20.0251C107.07 22.5723 107.537 25.088 108.465 27.371C109.394 29.6541 110.683 31.6541 112.341 33.3836C113.991 35.1132 115.91 36.4591 118.091 37.4339C120.271 38.4088 122.614 38.8931 125.118 38.8931C127.623 38.8931 129.916 38.4088 132.096 37.4339C134.277 36.4591 136.208 35.1132 137.896 33.3836C139.578 31.6541 140.893 29.6541 141.84 27.371C142.787 25.088 143.26 22.6415 143.26 20.0251C143.26 17.4088 142.787 15.0629 141.84 12.7799C140.893 10.4968 139.578 8.47796 137.896 6.71696ZM135.224 24.6289C134.675 26.0566 133.921 27.3144 132.962 28.4025C132.003 29.4905 130.869 30.3396 129.567 30.9434C128.265 31.5471 126.863 31.849 125.355 31.849C123.847 31.849 122.334 31.5471 121 30.9434C119.667 30.3396 118.496 29.4905 117.487 28.4025C116.477 27.3144 115.692 26.0566 115.125 24.6289C114.565 23.2012 114.284 21.6666 114.284 20.0251C114.284 18.3836 114.558 16.7861 115.1 15.3459C115.649 13.9056 116.415 12.6352 117.412 11.5471C118.409 10.4591 119.561 9.61004 120.876 9.00627C122.19 8.40249 123.617 8.10061 125.162 8.10061C126.707 8.10061 128.127 8.40249 129.448 9.00627C130.763 9.61004 131.909 10.4591 132.887 11.5471C133.865 12.6352 134.638 13.9056 135.199 15.3459C135.759 16.7861 136.04 18.3459 136.04 20.0251C136.04 21.7044 135.766 23.2012 135.224 24.6289Z" fill="#1D1D1F"/>
<path d="M170.928 23.7736L146.195 0H145.908V38.4906H152.985L152.842 16.6038L177.619 40H177.812V1.45912H170.791L170.928 23.7736Z" fill="#1D1D1F"/>
<path d="M189.606 23.4465H204.813V16.4025H189.606V8.50313H206.782V1.45911H182.628V38.4906H207.461V31.4465H189.606V23.4465Z" fill="#1D1D1F"/>
<path d="M242.948 12.7799C242.001 10.4968 240.686 8.47796 239.004 6.71696C237.322 4.95595 235.384 3.5723 233.204 2.56601C231.023 1.55972 228.693 1.05658 226.226 1.05658C223.759 1.05658 221.379 1.55972 219.199 2.56601C217.018 3.5723 215.099 4.95595 213.448 6.71696C211.797 8.47796 210.508 10.4968 209.573 12.7799C208.645 15.0629 208.178 17.478 208.178 20.0251C208.178 22.5723 208.645 25.088 209.573 27.371C210.501 29.6541 211.797 31.6541 213.448 33.3836C215.099 35.1132 217.018 36.4591 219.199 37.4339C221.379 38.4088 223.722 38.8931 226.226 38.8931C228.731 38.8931 231.023 38.4088 233.204 37.4339C235.384 36.4591 237.316 35.1132 239.004 33.3836C240.686 31.6541 242.001 29.6541 242.948 27.371C243.895 25.088 244.368 22.6415 244.368 20.0251C244.368 17.4088 243.895 15.0629 242.948 12.7799ZM236.331 24.6289C235.783 26.0566 235.029 27.3144 234.07 28.4025C233.11 29.4905 231.976 30.3396 230.674 30.9434C229.372 31.5471 227.971 31.849 226.463 31.849C224.955 31.849 223.441 31.5471 222.108 30.9434C220.775 30.3396 219.604 29.4905 218.594 28.4025C217.585 27.3144 216.8 26.0566 216.233 24.6289C215.672 23.2012 215.392 21.6666 215.392 20.0251C215.392 18.3836 215.666 16.7861 216.208 15.3459C216.756 13.9056 217.523 12.6352 218.52 11.5471C219.516 10.4591 220.669 9.61004 221.983 9.00627C223.298 8.40249 224.725 8.10061 226.27 8.10061C227.815 8.10061 229.235 8.40249 230.556 9.00627C231.871 9.61004 233.017 10.4591 233.995 11.5471C234.973 12.6352 235.746 13.9056 236.306 15.3459C236.867 16.7861 237.147 18.3459 237.147 20.0251C237.147 21.7044 236.873 23.2012 236.331 24.6289Z" fill="#1D1D1F"/>
<path d="M248.916 32.2516C248.193 31.5471 247.433 31.1949 246.63 31.1949C245.764 31.1949 244.966 31.5471 244.25 32.2516C243.527 32.956 243.166 33.8302 243.166 34.8679C243.166 35.9748 243.527 36.8553 244.25 37.5094C244.972 38.1635 245.764 38.4905 246.63 38.4905C247.433 38.4905 248.193 38.1635 248.916 37.5094C249.639 36.8553 250 35.9748 250 34.8679C250 33.8302 249.639 32.956 248.916 32.2516Z" fill="#1D1D1F"/>
<path d="M34.7638 15.7988C33.2623 16.6164 31.2313 17.8868 29.8296 18.673C29.1006 19.0503 28.2783 19.5661 27.4684 19.2893L27.4185 19.2705C26.3345 18.7736 25.5184 16.8994 24.8331 15.7547C23.9422 14.1761 23.2506 12.6101 25.076 11.5157C26.6522 10.434 29.001 9.20757 30.6519 8.10694C32.5459 6.8931 32.7079 5.76102 30.7952 4.33335C25.1196 -0.238976 16.6717 -0.974825 10.2796 2.54719C8.77195 3.50316 4.48566 5.55348 6.92162 7.52203C8.37323 8.7736 11.806 10.4151 13.5317 11.717C14.8712 12.6038 14.4787 13.9623 13.8245 15.1635C12.9274 16.6981 12.2608 18.5283 10.9026 19.2579C9.8186 19.5723 9.06476 18.9434 7.62562 18.1635C5.7566 17.2453 2.59173 14.5849 1.07782 15.2893C-0.398705 16.4403 0.00624915 20.9245 0.199381 22.7484C1.07782 29.2076 5.02768 34.673 10.4914 37.5095C11.7437 38.1321 14.1111 39.4654 14.6718 37.522C15.1515 35.5535 14.8525 33.1447 14.9397 30.9183C14.9522 29.5283 14.9958 28.5032 15.4319 27.9308C15.706 27.5535 16.1421 27.3774 16.5907 27.2767C17.6685 27.0566 19.4378 27.0881 20.8022 27.151C22.6214 27.195 23.4064 27.9371 23.3939 29.8994C23.4624 31.6038 23.369 34.2956 23.4562 36.1069C23.531 39.5157 25.618 38.6667 27.8609 37.5095C34.6516 34.1006 39.0314 26.1384 38.2713 18.2642C38.0844 15.5912 37.4365 14.2705 34.7638 15.7988Z" fill="#1D1D1F"/>
</g>
<defs>
<clipPath id="clip0_331_48">
<rect width="250" height="40" fill="white"/>
</clipPath>
</defs>
</svg>
